<svg id="Layer_1" data-name="Layer 1" xmlns="http://www.w3.org/2000/svg" viewBox="0 0 274.54 172.57"><defs><style>.cls-1{opacity:0.2;}.cls-2{fill:#205182;}.cls-3{fill:#dce1e5;}.cls-4{fill:#3773b1;}.cls-5{fill:#f0524f;}.cls-6{fill:#febd1b;}.cls-7{fill:#51c3c4;}.cls-8{fill:#f5f6f6;}.cls-9{opacity:0.3;}.cls-10{opacity:0.15;}.cls-11{fill:#225283;}</style></defs><title>repo-overview</title><rect class="cls-1 cls-2" x="34.28" y="163.53" width="208.19" height="9.03" rx="3.77" ry="3.77" id="_Group_" data-name="&lt;Group&gt;"/><g id="_Group_2" data-name="&lt;Group&gt;"><rect class="cls-3" x="36.33" y="27.06" width="204.1" height="140.49" rx="9.65" ry="9.65"/><path class="cls-2" d="M232.33 169.23H44.42a9.78 9.78 0 0 1-9.77-9.77V35.15a9.78 9.78 0 0 1 9.77-9.77h187.91a9.78 9.78 0 0 1 9.77 9.77v124.3a9.78 9.78 0 0 1-9.77 9.78zM44.42 28.73A6.43 6.43 0 0 0 38 35.15v124.3a6.43 6.43 0 0 0 6.42 6.42h187.91a6.43 6.43 0 0 0 6.42-6.42V35.15a6.43 6.43 0 0 0-6.42-6.42H44.42z"/></g><g id="_Group_3" data-name="&lt;Group&gt;"><path class="cls-4" d="M46 27.06h184.8a9.65 9.65 0 0 1 9.65 9.65v10.42H36.33V36.71A9.65 9.65 0 0 1 46 27.06z"/><path class="cls-2" d="M242.11 48.8H34.65V35.15a9.78 9.78 0 0 1 9.77-9.77h187.91a9.78 9.78 0 0 1 9.77 9.77V48.8zM38 45.45h200.75v-10.3a6.43 6.43 0 0 0-6.42-6.42H44.42A6.43 6.43 0 0 0 38 35.15v10.3z"/></g><g id="_Group_4" data-name="&lt;Group&gt;"><ellipse class="cls-5" cx="47.55" cy="37.09" rx="1.53" ry="1.51" id="_Group_5" data-name="&lt;Group&gt;"/><ellipse class="cls-6" cx="53.16" cy="37.09" rx="1.53" ry="1.51" id="_Group_6" data-name="&lt;Group&gt;"/><ellipse class="cls-7" cx="58.78" cy="37.09" rx="1.53" ry="1.51" id="_Group_7" data-name="&lt;Group&gt;"/></g><path class="cls-1 cls-2" d="M36.33 43.11h204.1v12.04H36.33z" id="_Group_8" data-name="&lt;Group&gt;"/><rect class="cls-1 cls-2" x="53.16" y="64.85" width="168.34" height="87.1" rx="2.01" ry="2.01"/><g class="cls-1"><path class="cls-2" d="M135.66 93.81h3.35v29.9h-3.35zM122.13 108.76h30.41"/><path class="cls-2" d="M122.13 107.08h30.4v3.35h-30.4z"/></g><g id="_Group_9" data-name="&lt;Group&gt;"><g class="cls-1"><g id="_Group_10" data-name="&lt;Group&gt;"><path class="cls-2" d="M64.52 160.84H4a2.35 2.35 0 0 1-2.37-2.33V86.12A2.35 2.35 0 0 1 4 83.79h54l8.89 8.85v65.88a2.35 2.35 0 0 1-2.37 2.32z"/><path class="cls-2" d="M64.52 162.52H4a4 4 0 0 1-4-4v-72.4a4 4 0 0 1 4-4h54a1.68 1.68 0 0 1 1.18.49l8.89 8.85a1.68 1.68 0 0 1 .49 1.19v65.88a4 4 0 0 1-4.04 3.99zM4 85.46a.68.68 0 0 0-.69.65v72.39a.68.68 0 0 0 .69.65h60.52a.68.68 0 0 0 .69-.65V93.33l-7.91-7.87H4z"/></g><path class="cls-1 cls-2" d="M66.89 92.64H58v-8.85l8.89 8.85z"/><path class="cls-2" d="M66.89 94.31H58a1.68 1.68 0 0 1-1.68-1.68v-8.84a1.68 1.68 0 0 1 2.86-1.19l8.89 8.85a1.68 1.68 0 0 1-1.18 2.86zM59.68 91h3.15l-3.15-3.14V91z"/></g><g id="_Group_11" data-name="&lt;Group&gt;"><path class="cls-8" d="M64.52 159.17H4a2.35 2.35 0 0 1-2.37-2.33v-72.4A2.35 2.35 0 0 1 4 82.11h54L66.89 91v65.88a2.35 2.35 0 0 1-2.37 2.29z"/><path class="cls-2" d="M64.52 160.84H4a4 4 0 0 1-4-4v-72.4a4 4 0 0 1 4-4h54a1.68 1.68 0 0 1 1.18.49l8.89 8.85a1.68 1.68 0 0 1 .5 1.22v65.88a4 4 0 0 1-4.05 3.96zM4 83.79a.68.68 0 0 0-.69.65v72.39a.68.68 0 0 0 .69.65h60.52a.68.68 0 0 0 .69-.65V91.65l-7.91-7.87H4z"/></g><g id="_Group_12" data-name="&lt;Group&gt;"><path class="cls-1 cls-4" d="M66.89 90.96H58v-8.85l8.89 8.85z"/><path class="cls-2" d="M66.89 92.63H58A1.68 1.68 0 0 1 56.32 91v-8.89a1.68 1.68 0 0 1 2.86-1.19l8.89 8.85a1.68 1.68 0 0 1-1.18 2.86zm-7.22-3.35h3.15l-3.15-3.13v3.13z"/></g></g><path class="cls-9 cls-2" d="M11.16 95.06h28.46v3.35H11.16z" id="_Group_13" data-name="&lt;Group&gt;"/><path class="cls-9 cls-2" d="M11.16 102.89h14.98v3.35H11.16z" id="_Group_14" data-name="&lt;Group&gt;"/><path class="cls-9 cls-2" d="M11.16 110.71h39.3v3.35h-39.3z" id="_Group_15" data-name="&lt;Group&gt;"/><path class="cls-9 cls-2" d="M11.16 118.54h28.46v3.35H11.16z" id="_Group_16" data-name="&lt;Group&gt;"/><path class="cls-9 cls-2" d="M11.16 126.37h14.98v3.35H11.16z" id="_Group_17" data-name="&lt;Group&gt;"/><path class="cls-9 cls-2" d="M11.16 134.19h39.3v3.35h-39.3z" id="_Group_18" data-name="&lt;Group&gt;"/><path class="cls-10 cls-2" d="M167.57 48.67H239V125h-68.43a3 3 0 0 1-3-3V48.67z"/><g id="_Group_19" data-name="&lt;Group&gt;"><g class="cls-1"><g id="_Group_20" data-name="&lt;Group&gt;"><path class="cls-2" d="M269.46 113.77h-86.65a3.37 3.37 0 0 1-3.4-3.34V6.7a3.37 3.37 0 0 1 3.4-3.34h77.31L272.86 16v94.4a3.37 3.37 0 0 1-3.4 3.37z"/><path class="cls-2" d="M269.46 115.45h-86.65a5.05 5.05 0 0 1-5.08-5V6.7a5.05 5.05 0 0 1 5.08-5h77.31a1.68 1.68 0 0 1 1.18.49L274 14.84a1.68 1.68 0 0 1 .49 1.19v94.4a5.05 5.05 0 0 1-5.03 5.02zM182.81 5a1.7 1.7 0 0 0-1.72 1.66v103.77a1.7 1.7 0 0 0 1.72 1.66h86.65a1.7 1.7 0 0 0 1.72-1.66v-93.7L259.42 5h-76.61z"/></g><path class="cls-1 cls-2" d="M272.86 16.03h-12.74V3.35l12.74 12.68z"/><path class="cls-2" d="M272.86 17.71h-12.74a1.68 1.68 0 0 1-1.68-1.71V3.35a1.68 1.68 0 0 1 2.86-1.19L274 14.84a1.68 1.68 0 0 1-1.14 2.87zm-11.07-3.35h7l-7-7v7z"/><ellipse class="cls-2" cx="226.13" cy="59.45" rx="28.03" ry="27.57" id="_Group_21" data-name="&lt;Group&gt;"/><path class="cls-2" d="M232.4 75.28a1.74 1.74 0 0 1-1.22-3l4-4-4-4a1.74 1.74 0 0 1 2.46-2.43l5.13 5.15a1.91 1.91 0 0 1 0 2.7l-5.07 5.1a1.74 1.74 0 0 1-1.3.48zM219.87 57.9a1.74 1.74 0 0 1-1.22-.51l-5.12-5.11a1.91 1.91 0 0 1 0-2.7l5.12-5.12a1.74 1.74 0 0 1 2.47 2.45l-4 4 4 4a1.74 1.74 0 0 1-1.25 2.99zM219 75.25a1.74 1.74 0 0 1-1.53-2.52l14.73-27.85a1.74 1.74 0 0 1 3.08 1.63l-14.72 27.81a1.74 1.74 0 0 1-1.56.93z"/></g><g id="_Group_22" data-name="&lt;Group&gt;"><g id="_Group_23" data-name="&lt;Group&gt;"><path class="cls-8" d="M269.46 112.1h-86.65a3.37 3.37 0 0 1-3.4-3.34V5a3.37 3.37 0 0 1 3.4-3.34h77.31l12.74 12.68v94.4a3.37 3.37 0 0 1-3.4 3.36z"/><path class="cls-2" d="M269.46 113.77h-86.65a5.05 5.05 0 0 1-5.08-5V5a5.05 5.05 0 0 1 5.08-5h77.31a1.68 1.68 0 0 1 1.18.49L274 13.17a1.68 1.68 0 0 1 .49 1.19v94.4a5.05 5.05 0 0 1-5.03 5.01zM182.81 3.35A1.7 1.7 0 0 0 181.09 5v103.75a1.7 1.7 0 0 0 1.72 1.66h86.65a1.7 1.7 0 0 0 1.72-1.66v-93.7l-11.76-11.7h-76.61z"/></g><g id="_Group_24" data-name="&lt;Group&gt;"><path class="cls-1 cls-4" d="M272.86 14.36h-12.74V1.68l12.74 12.68z"/><path class="cls-2" d="M272.86 16h-12.74a1.68 1.68 0 0 1-1.68-1.68V1.68A1.68 1.68 0 0 1 261.3.49L274 13.17a1.68 1.68 0 0 1-1.14 2.83zm-11.07-3.35h7l-7-7v7z"/></g></g><g id="_Group_25" data-name="&lt;Group&gt;"><ellipse class="cls-7" cx="226.13" cy="57.77" rx="28.03" ry="27.57" id="_Group_26" data-name="&lt;Group&gt;"/><path class="cls-11" d="M232.4 73.6a1.74 1.74 0 0 1-1.22-3l4-4-4-4a1.74 1.74 0 0 1 2.46-2.43l5.17 5.14a1.91 1.91 0 0 1 0 2.7l-5.07 5.1a1.74 1.74 0 0 1-1.34.49zm-12.53-17.38a1.74 1.74 0 0 1-1.22-.51l-5.12-5.11a1.91 1.91 0 0 1 0-2.7l5.12-5.12a1.74 1.74 0 0 1 2.47 2.45l-4 4 4 4a1.74 1.74 0 0 1-1.25 2.99zM219 73.57a1.74 1.74 0 0 1-1.53-2.52L232.2 43.2a1.74 1.74 0 0 1 3.08 1.63l-14.72 27.81a1.74 1.74 0 0 1-1.56.93z"/></g></g></svg>